<svg width="91" height="24" viewBox="0 0 91 24" fill="none" xmlns="http://www.w3.org/2000/svg">
<path d="M44.2266 15.0469H39.2969V5.72656H36.9375V17H44.2266V15.0469ZM49.1484 17.1797C51.6797 17.1797 53.2969 15.5625 53.2969 12.8047C53.2969 10.0859 51.6562 8.44531 49.1484 8.44531C46.6406 8.44531 45 10.0938 45 12.8047C45 15.5547 46.6172 17.1797 49.1484 17.1797ZM49.1484 15.4375C48.0234 15.4375 47.3125 14.4922 47.3125 12.8125C47.3125 11.1484 48.0391 10.1875 49.1484 10.1875C50.2578 10.1875 50.9766 11.1484 50.9766 12.8125C50.9766 14.4922 50.2656 15.4375 49.1484 15.4375ZM58.3438 15.2188C57.2109 15.2188 56.5078 14.3281 56.5078 12.7969C56.5078 11.2734 57.2188 10.3203 58.3438 10.3203C59.4844 10.3203 60.2109 11.2891 60.2109 12.7969C60.2109 14.3125 59.4844 15.2188 58.3438 15.2188ZM58.3047 20.1562C60.8125 20.1562 62.4844 18.8828 62.4844 16.8828V8.625H60.2344V10.0859H60.1953C59.7578 9.125 58.8125 8.49219 57.6094 8.49219C55.4844 8.49219 54.1719 10.125 54.1719 12.7812C54.1719 15.3984 55.5234 16.9766 57.5703 16.9766C58.7812 16.9766 59.7656 16.3672 60.1562 15.4766H60.2031V16.9453C60.2031 17.9141 59.5469 18.5703 58.3672 18.5703C57.5 18.5703 56.8438 18.1719 56.6641 17.5938H54.4297C54.6094 19.0859 56.1016 20.1562 58.3047 20.1562ZM70.9922 17.1797C73.5234 17.1797 75.1406 15.5625 75.1406 12.8047C75.1406 10.0859 73.5 8.44531 70.9922 8.44531C68.4844 8.44531 66.8438 10.0938 66.8438 12.8047C66.8438 15.5547 68.4609 17.1797 70.9922 17.1797ZM70.9922 15.4375C69.8672 15.4375 69.1562 14.4922 69.1562 12.8125C69.1562 11.1484 69.8828 10.1875 70.9922 10.1875C72.1016 10.1875 72.8203 11.1484 72.8203 12.8125C72.8203 14.4922 72.1094 15.4375 70.9922 15.4375ZM84.0547 8.625H81.7734V13.4219C81.7734 14.5312 81.1406 15.2578 80.125 15.2578C79.1172 15.2578 78.5625 14.6641 78.5625 13.5469V8.625H76.2812V14.0234C76.2812 15.9766 77.4844 17.1562 79.2969 17.1562C80.5625 17.1562 81.3906 16.5469 81.8047 15.4922H81.8516V17H84.0547V8.625ZM86.1484 6.69531V8.625H84.9688V10.3438H86.1484V14.7422C86.1484 16.375 86.9141 17.0312 88.8828 17.0312C89.3438 17.0312 89.7344 16.9922 89.9688 16.9375V15.2578C89.8281 15.2812 89.6172 15.2969 89.4141 15.2969C88.7422 15.2969 88.4297 14.9922 88.4297 14.3516V10.3438H89.9766V8.625H88.4297V6.69531H86.1484Z" fill="white"/>
<path d="M16.3135 8.0625L20.2499 12L16.3135 15.9375" stroke="white" stroke-width="2.25" stroke-linecap="round" stroke-linejoin="round"/>
<path d="M9.75 12H20.2472" stroke="white" stroke-width="2.25" stroke-linecap="round" stroke-linejoin="round"/>
<path d="M9.75 20.25H4.5C4.30109 20.25 4.11032 20.171 3.96967 20.0303C3.82902 19.8897 3.75 19.6989 3.75 19.5V4.5C3.75 4.30109 3.82902 4.11032 3.96967 3.96967C4.11032 3.82902 4.30109 3.75 4.5 3.75H9.75" stroke="white" stroke-width="2.25" stroke-linecap="round" stroke-linejoin="round"/>
</svg>
